HIERARCHY
ROOT Pelvis
{
	OFFSET 0.000000 0.000000 0.000000
	CHANNELS 6 Xposition Yposition Zposition Zrotation Yrotation Xrotation 
	JOINT Left_hip
	{
		OFFSET 0.070241 -0.085575 -0.010474
		CHANNELS 3 Zrotation Yrotation Xrotation
		JOINT Left_knee
		{
			OFFSET 0.032125 -0.356873 -0.000555
			CHANNELS 3 Zrotation Yrotation Xrotation
			JOINT Left_ankle
			{
				OFFSET -0.010961 -0.370212 -0.042278
				CHANNELS 3 Zrotation Yrotation Xrotation
				JOINT Left_foot
				{
					OFFSET 0.023322 -0.052281 0.110104
					CHANNELS 3 Zrotation Yrotation Xrotation
					End Site
					{
						OFFSET 0.000000 0.000000 0.000000
					}
				}
			}
		}
	}
	JOINT Right_hip
	{
		OFFSET -0.068518 -0.084320 -0.007402
		CHANNELS 3 Zrotation Yrotation Xrotation
		JOINT Right_knee
		{
			OFFSET -0.037345 -0.364815 -0.003619
			CHANNELS 3 Zrotation Yrotation Xrotation
			JOINT Right_ankle
			{
				OFFSET 0.013394 -0.370006 -0.039954
				CHANNELS 3 Zrotation Yrotation Xrotation
				JOINT Right_foot
				{
					OFFSET -0.019600 -0.045455 0.113223
					CHANNELS 3 Zrotation Yrotation Xrotation
					End Site
					{
						OFFSET 0.000000 0.000000 0.000000
					}
				}
			}
		}
	}
	JOINT Spine1
	{
		OFFSET -0.002404 0.098129 -0.018169
		CHANNELS 3 Zrotation Yrotation Xrotation
		JOINT Spine2
		{
			OFFSET 0.003989 0.127209 -0.001742
			CHANNELS 3 Zrotation Yrotation Xrotation
			JOINT Spine3
			{
				OFFSET 0.001758 0.046641 0.023475
				CHANNELS 3 Zrotation Yrotation Xrotation
				JOINT Neck
				{
					OFFSET -0.003759 0.194901 -0.039982
					CHANNELS 3 Zrotation Yrotation Xrotation
					JOINT Head
					{
						OFFSET 0.003999 0.063756 0.047665
						CHANNELS 3 Zrotation Yrotation Xrotation
						End Site
						{
							OFFSET 0.000000 0.000000 0.000000
						}
					}
				}
				JOINT Left_collar
				{
					OFFSET 0.071816 0.109048 -0.028973
					CHANNELS 3 Zrotation Yrotation Xrotation
					JOINT Left_shoulder
					{
						OFFSET 0.084027 0.032269 -0.006525
						CHANNELS 3 Zrotation Yrotation Xrotation
						JOINT Left_elbow
						{
							OFFSET 0.243854 -0.013992 -0.025905
							CHANNELS 3 Zrotation Yrotation Xrotation
							JOINT Left_wrist
							{
								OFFSET 0.232156 0.008196 -0.000339
								CHANNELS 3 Zrotation Yrotation Xrotation
								JOINT Left_palm
								{
									OFFSET 0.075377 -0.009461 -0.012494
									CHANNELS 3 Zrotation Yrotation Xrotation
									End Site
									{
										OFFSET 0.000000 0.000000 0.000000
									}
								}
							}
						}
					}
				}
				JOINT Right_collar
				{
					OFFSET -0.073768 0.107001 -0.033755
					CHANNELS 3 Zrotation Yrotation Xrotation
					JOINT Right_shoulder
					{
						OFFSET -0.086837 0.032868 -0.009431
						CHANNELS 3 Zrotation Yrotation Xrotation
						JOINT Right_elbow
						{
							OFFSET -0.236446 -0.012544 -0.018747
							CHANNELS 3 Zrotation Yrotation Xrotation
							JOINT Right_wrist
							{
								OFFSET -0.236110 0.006124 -0.004327
								CHANNELS 3 Zrotation Yrotation Xrotation
								JOINT Right_palm
								{
									OFFSET -0.074800 -0.006875 -0.009610
									CHANNELS 3 Zrotation Yrotation Xrotation
									End Site
									{
										OFFSET 0.000000 0.000000 0.000000
									}
								}
							}
						}
					}
				}
			}
		}
	}
}
MOTION
Frames: 14
Frame Time: 0.100000
-0.321017 0.303011 -1.421879 167.728802 51.236700 16.157711 10.528544 4.198202 -70.750690 -5.312993 2.495274 43.084613 -4.315497 17.333491 -4.100503 7.998510 2.506270 -2.906404 -2.264738 -2.582020 -68.967208 7.420986 -2.251318 47.615594 5.399902 -15.486780 -13.867468 -18.805743 11.082738 -3.593488 5.235374 2.407359 68.763500 -5.070475 -1.102181 3.487555 6.561031 7.028300 -6.753715 -17.907518 -8.451359 -11.483376 22.051877 -6.157940 -32.517117 2.238730 -52.505504 -8.377511 8.873628 -29.298526 -18.939987 11.350885 -31.925525 -7.415618 20.153694 -14.908389 13.704704 -4.197457 -9.169578 -8.595620 -0.381429 54.174091 6.276515 -9.362957 7.768409 -29.008968 -9.466780 14.875162 -5.290693 -20.709999 12.865805 13.216399 7.005463 8.723469 -8.838929 
-0.319226 0.291278 -1.412456 170.473398 52.416974 15.126487 9.097220 4.029123 -64.943664 -5.473165 2.407378 39.456690 -6.886414 14.958584 -1.148705 11.101935 3.365764 -5.914954 -3.122645 -2.996000 -63.076957 6.158108 -1.628320 44.685695 6.231001 -14.653625 -14.005460 -21.692763 11.121875 -3.240925 6.402360 1.695217 64.334608 -5.247209 -0.884872 6.408214 5.523395 7.773928 -6.384871 -16.817182 -11.349294 -6.722285 21.565068 -6.552459 -30.506006 -3.497415 -50.611822 -6.151437 -5.592748 -37.357600 -11.440294 17.867273 -44.586337 -8.646382 18.732908 -13.455308 14.923837 -9.212693 -11.858276 -11.306257 1.192995 52.779336 6.446440 -4.273201 13.841179 -27.641163 -11.423409 14.727873 -7.861283 -17.470776 10.990624 14.775949 9.147950 11.932186 -11.067584 
-0.316949 0.288226 -1.407251 170.091666 50.550706 11.680955 11.364895 5.959222 -64.700988 -7.562431 0.772927 45.000376 -8.970584 12.905425 2.816009 11.663734 3.563856 -9.121905 -2.037108 -1.709363 -59.057756 6.515282 -0.376811 43.816663 6.430674 -14.267065 -14.183981 -23.157413 10.283220 -4.632284 4.977732 2.056561 62.842751 -5.368465 -1.715793 6.780609 5.408267 7.082225 -5.105768 -16.455745 -8.183406 -3.317651 22.232642 -5.758369 -30.421923 -2.635251 -48.004379 -5.193959 -2.891110 -29.906612 -13.290780 15.484115 -40.825902 -5.349374 20.690929 -14.394713 15.743744 -8.406999 -10.014573 -9.736241 2.592208 55.415693 8.071615 -2.411799 19.745276 -27.889630 -9.494189 13.171559 -5.832837 -19.712246 12.577877 11.936309 7.423372 8.466724 -7.158575 
-0.320612 0.294542 -1.410992 169.245163 49.036482 10.401536 12.873911 5.705213 -62.703505 -8.010299 -4.832585 37.979847 -4.487067 14.557767 -8.602245 8.822753 3.339839 -1.817214 -1.824540 -1.427295 -59.173257 7.237748 0.106675 45.134326 7.184957 -13.691863 -14.683679 -19.935301 7.891511 -4.820900 2.775510 3.568020 64.063272 -3.698367 -2.253410 6.077176 6.460650 6.156779 -4.474003 -15.191358 -3.011080 -5.563800 22.773989 -5.565008 -30.593818 3.674952 -48.201054 -8.495557 7.395851 -25.871443 -21.084660 8.846436 -16.272536 -7.437306 20.216083 -13.208156 18.462755 -1.419570 -5.543194 -6.421592 2.580362 57.022186 6.343811 -3.146349 22.506996 -28.143345 -6.458840 14.491648 -4.607752 -21.441866 13.536334 7.679994 2.524068 3.154442 -1.333481 
-0.336297 0.301431 -1.424177 166.340201 48.855928 11.771877 13.351283 6.936993 -66.170850 -7.585798 -5.155385 33.862493 -4.422843 14.060735 1.449000 8.318166 3.495858 -1.697057 -1.913075 -1.387415 -63.753459 7.587907 -0.692919 46.492664 7.374944 -14.310331 -14.124642 -21.266063 5.899762 -7.349091 1.099912 2.370984 66.606907 -1.591706 -4.965103 0.472402 8.950031 3.522921 -2.999712 -16.952428 2.149115 -9.828609 22.827882 -1.528024 -31.330839 11.291785 -49.557856 -11.861814 15.872340 -14.697931 -28.234520 3.746979 7.935514 -15.920583 24.244180 -10.260488 14.715244 4.456053 -2.681525 0.424740 -0.205659 61.028041 2.486769 -3.604022 28.428483 -28.712717 -3.457803 14.989712 -5.161127 -26.268900 13.668565 3.029427 -2.028533 -1.436203 2.876191 
-0.360820 0.302294 -1.443303 164.819122 47.725209 11.330487 12.961492 7.910978 -67.838590 -7.288190 -2.460341 35.854905 -5.212440 13.802110 1.995852 9.847701 3.552250 -2.567234 -2.254420 -1.532166 -63.640844 7.162379 -0.515251 45.433037 8.020220 -13.495790 -13.181616 -22.741579 5.698397 -8.240053 1.357052 2.213096 67.608905 -1.217898 -5.321440 1.789266 9.068520 3.588780 -4.189317 -16.500144 3.915635 -9.114704 22.938718 -1.515404 -31.885635 12.121985 -49.050391 -12.830097 18.593606 -16.104607 -29.679446 6.508066 0.671844 -13.480296 20.457073 -12.204141 16.754808 3.068635 -3.363103 -1.854375 -0.388084 61.170252 2.261080 -4.445032 30.169921 -29.447063 -5.431755 16.793006 -7.210502 -23.587041 13.913267 2.128551 -1.707219 -0.751161 1.780391 
-0.390842 0.296659 -1.461275 167.571083 46.225377 12.366967 11.314117 5.946388 -65.354733 -6.345046 -0.019291 35.450790 -5.338384 14.014561 0.805641 9.597418 2.897001 -5.088436 -3.871599 -2.609260 -60.795362 6.068189 1.622742 42.738887 9.305408 -13.251875 -11.981495 -23.700658 9.668148 -7.269029 3.396455 3.282716 64.681474 -1.973685 -3.221479 7.080918 7.718669 6.053441 -6.279675 -15.638600 -0.955082 -6.519524 23.067912 -4.253458 -30.609214 8.991043 -48.659139 -10.235706 13.040296 -25.044109 -21.813662 10.446777 -36.226720 -0.274937 17.970081 -16.471537 15.167354 -4.193995 -7.424535 -9.037135 1.453163 58.883955 6.562237 -5.057678 26.545357 -29.355626 -9.446172 14.485575 -9.134605 -21.190979 13.027803 3.727782 3.503492 4.602789 -4.649104 
-0.422623 0.291299 -1.484232 168.313149 44.046960 11.574967 9.365486 4.996905 -62.110588 -6.199543 1.024054 34.069955 -4.433952 14.351027 -0.327522 9.427703 3.348976 -4.066836 -5.212842 -3.028669 -56.154724 4.918095 3.825154 37.335263 10.226092 -12.241191 -9.611151 -24.280738 8.127826 -7.593173 4.379305 3.179414 61.774009 -1.586510 -3.753787 8.541392 7.528565 6.064038 -5.897442 -14.925382 -1.997257 -3.699385 22.533452 -3.813847 -28.880854 6.160792 -50.752891 -9.606365 8.661975 -29.341337 -21.232285 10.658492 -26.708201 0.208641 19.819946 -15.281081 19.143133 -3.317318 -7.315221 -8.505098 1.787358 58.704357 5.217177 -0.750047 28.333529 -27.580113 -9.156247 12.972646 -10.944400 -21.528650 12.697263 5.481584 3.752397 4.890822 -5.517031 
-0.449456 0.287903 -1.508332 168.550270 38.882253 13.210389 8.797863 5.706016 -61.319430 -6.181568 3.070419 32.329812 -2.469644 16.056878 -0.846083 7.736732 2.328338 -2.320987 -5.450848 -2.019937 -55.114599 3.787556 7.090636 31.153251 12.457868 -12.532731 -6.009150 -26.797848 7.321003 -10.585006 1.820388 2.964570 61.012855 -1.890921 -6.194695 4.328690 7.293302 4.148098 -3.061229 -15.996937 -0.102144 -5.940813 22.819461 0.453376 -26.954196 7.582994 -48.518540 -9.240680 9.333735 -21.662258 -23.734079 9.512833 -8.889812 -8.265941 26.285076 -11.190114 12.527283 1.998182 -3.772773 -1.693355 0.644210 58.757804 2.976847 3.484412 36.451483 -26.502271 -6.464404 12.769817 -10.734574 -27.303721 11.510153 1.610083 -0.740295 0.569496 0.233306 
-0.467132 0.291123 -1.526957 167.542543 35.136434 15.178000 9.327305 6.981972 -64.340888 -6.308862 5.066635 33.734301 -1.104799 17.285528 -1.859368 6.799843 1.819403 -0.195228 -4.827501 -1.613096 -57.540299 3.510205 7.682272 28.584869 13.358926 -12.998417 -3.167740 -27.830030 5.900821 -13.139610 -0.306266 3.104758 63.217435 -1.260965 -7.855157 0.314103 8.024656 2.408759 -1.938175 -17.149556 3.450369 -10.824104 22.773755 2.875426 -28.400208 11.748148 -46.879382 -11.269297 15.396210 -13.377777 -29.160365 5.555427 9.038738 -16.897829 24.585320 -7.502001 12.709513 7.718048 -1.586444 2.436789 -0.245425 59.981947 1.090722 2.268405 41.554485 -27.972969 -4.837549 12.200685 -9.466257 -27.689724 10.721446 2.058215 -5.411176 -2.590206 4.189900 
-0.475261 0.294466 -1.536034 167.001716 35.867906 16.416957 9.154607 6.814420 -67.092681 -6.346296 5.800508 34.726276 -0.822611 16.554857 -1.969778 5.836722 1.996552 -0.111753 -5.276768 -2.400519 -59.036633 3.508457 7.462493 27.921479 13.740605 -13.080883 -2.752727 -27.679923 6.440616 -12.975658 0.655050 3.198408 65.205087 -0.169267 -7.547108 -0.297352 9.093840 2.590871 -2.679361 -17.844960 3.696298 -12.744826 22.503723 1.214144 -30.165350 16.142231 -47.637353 -13.633993 19.279757 -12.200253 -30.333327 6.187092 5.096087 -14.533037 21.390200 -8.460849 12.831660 7.639557 -2.075322 0.977939 -1.663356 60.846187 0.600556 -1.290174 38.245880 -29.593464 -5.489416 14.602864 -8.954166 -25.221753 10.873648 2.629571 -5.003112 -2.188315 1.970577 
-0.478357 0.293573 -1.536835 167.933086 37.298018 16.116379 8.312084 5.565972 -66.371690 -5.637583 5.929183 34.475041 -1.646539 15.569528 -1.825721 5.727635 2.066812 -2.029590 -6.065089 -3.349771 -58.019226 3.216964 7.118005 27.668566 14.076616 -13.274092 -3.041135 -27.227536 9.086664 -10.984006 2.989786 3.979674 63.855562 -0.206961 -5.420695 3.761649 8.774483 4.933157 -5.004501 -17.754612 1.009751 -9.504249 22.854279 -2.989633 -30.905537 16.507115 -49.056347 -13.684001 19.969024 -18.737076 -24.477914 3.442509 -18.964377 4.763223 11.439467 -13.806445 16.541294 1.490895 -5.394405 -7.551080 -0.489009 60.393871 3.854257 -3.653602 30.310962 -28.609138 -7.164656 14.980781 -8.488280 -17.605527 11.457136 3.097770 0.331667 1.700243 -5.301163 
-0.480025 0.291007 -1.532509 169.501199 37.520989 14.429667 7.187829 4.857523 -62.811433 -5.400112 5.869249 33.906986 -2.534356 15.078120 -2.533899 7.033693 2.348635 -3.386279 -6.624716 -4.061432 -54.950940 2.987082 7.137705 27.645417 13.316387 -12.738218 -3.233602 -25.775836 10.073939 -9.478802 4.948257 4.359112 62.068344 -0.353682 -3.703811 8.088846 7.992410 6.711607 -6.883302 -15.937482 -2.356691 -7.230546 22.651926 -6.055620 -30.262320 11.963710 -50.595810 -11.963105 15.943048 -27.030887 -20.124744 -0.323299 -31.335556 14.104218 7.650635 -15.187011 19.943162 -2.713479 -8.483686 -12.283398 2.982831 59.559546 7.172042 -3.546971 25.889000 -26.473076 -7.622542 14.426308 -8.167363 -12.813594 11.308981 6.415270 3.650609 5.591051 -9.788084 
-0.480739 0.286712 -1.535062 170.339462 34.578562 14.002181 7.268533 5.126508 -60.137163 -4.964881 6.358566 32.198899 -2.406000 16.627663 -2.283265 8.331736 2.242291 -2.056197 -6.567652 -4.414843 -55.998562 3.645679 4.459237 29.621255 13.791163 -11.748391 1.053126 -26.989718 7.594491 -11.686625 3.785815 3.547211 61.306056 -1.057709 -4.025380 6.533101 7.432269 5.998768 -5.560898 -15.367170 -2.973248 -5.875558 22.290970 -3.531883 -28.774674 6.591223 -49.487601 -9.826102 8.212432 -28.191978 -19.680274 9.091030 -20.771446 0.807506 17.969654 -13.368153 18.602656 -0.615401 -6.369096 -7.497891 3.552558 59.232112 5.824112 0.298712 31.651038 -26.092026 -6.923459 12.338263 -9.293868 -17.763710 11.450687 8.254905 1.663577 3.920701 -6.085520 
